<svg width="60" height="60" viewBox="15 75 165 42" fill="none" xmlns="http://www.w3.org/2000/svg">
<path d="M83.2018 90.7018H87.8338L88.5557 93.7554C89.0971 92.5579 89.8189 91.6598 90.7814 91.061C91.7439 90.4623 92.7665 90.103 93.9095 90.103C95.3532 90.103 96.5563 90.4623 97.6391 91.2407C98.7219 91.9592 99.4438 92.977 99.925 94.2344C100.406 92.9172 101.188 91.9592 102.211 91.2407C103.234 90.5222 104.437 90.1629 105.76 90.1629C107.023 90.1629 108.166 90.4623 109.189 91.061C110.212 91.6598 110.994 92.5579 111.535 93.6955C112.076 94.8332 112.377 96.1504 112.377 97.5874L112.377 109.802H106.783L106.783 98.6053C106.783 97.8868 106.662 97.2282 106.422 96.6893C106.181 96.1504 105.82 95.6714 105.339 95.3721C104.858 95.0727 104.316 94.893 103.715 94.893C103.113 94.893 102.572 95.0128 102.091 95.3122C101.609 95.6116 101.248 96.0307 101.008 96.6294C100.707 97.2282 100.587 97.8868 100.587 98.6053L100.587 109.802H94.9321L94.9321 98.6053C94.9321 97.8868 94.872 97.2282 94.6313 96.6294C94.3907 96.0307 94.0298 95.6116 93.6087 95.3122C93.1274 95.0128 92.6462 94.893 92.0447 94.893C91.383 94.893 90.8416 95.0128 90.3603 95.3122C89.8791 95.6116 89.5783 96.0307 89.3377 96.6294C89.097 97.2282 88.9768 97.8868 88.9768 98.6053L88.9768 109.802H83.3221L83.3221 90.7018H83.2018Z" fill="#0F1822"/>
<path d="M115.806 87.2284C115.205 86.6296 114.844 85.8512 114.844 84.8334C114.844 83.8754 115.145 83.097 115.806 82.4982C116.408 81.8995 117.25 81.6001 118.213 81.6001C119.235 81.6001 120.017 81.8995 120.679 82.4982C121.341 83.097 121.641 83.8754 121.641 84.8334C121.641 85.7914 121.341 86.5697 120.679 87.2284C120.017 87.8271 119.235 88.1265 118.213 88.1265C117.25 88.1265 116.468 87.8271 115.806 87.2284ZM115.385 90.7011H120.98L120.98 109.801H115.385L115.385 90.7011Z" fill="#0F1822"/>
<path d="M124.167 90.7018H128.678L129.46 93.9949C129.882 92.7375 130.543 91.7795 131.446 91.1209C132.348 90.4623 133.371 90.103 134.453 90.103C135.476 90.103 136.378 90.4024 137.22 90.9413C138.002 91.4802 138.664 92.2585 139.145 93.2764C139.627 94.2943 139.927 95.4319 139.988 96.7492L135.235 98.0664C135.235 96.9887 134.935 96.0906 134.453 95.3721C133.972 94.6535 133.371 94.2943 132.589 94.2943C131.807 94.2943 131.506 94.4739 131.085 94.893C130.664 95.3122 130.303 95.8511 130.122 96.6294C129.882 97.4078 129.761 98.2461 129.761 99.3238L129.761 109.802H124.107L124.107 90.7018H124.167Z" fill="#0F1822"/>
<path d="M142.033 82.1382H147.688L147.688 109.801H142.033L142.033 82.1382Z" fill="#0F1822"/>
<path d="M154.667 109.144C153.163 108.305 152.02 107.108 151.238 105.611C150.456 104.054 150.035 102.318 150.035 100.282C150.035 98.2462 150.456 96.45 151.238 94.9531C152.02 93.3963 153.223 92.2587 154.667 91.4205C156.171 90.5822 157.855 90.1631 159.84 90.1631C161.765 90.1631 163.51 90.5822 164.953 91.4205C166.397 92.2587 167.54 93.4562 168.382 94.9531C169.164 96.5099 169.585 98.2462 169.585 100.282C169.585 102.318 169.164 104.114 168.382 105.611C167.6 107.168 166.457 108.305 164.953 109.144C163.51 109.982 161.765 110.401 159.84 110.401C157.915 110.401 156.171 109.982 154.667 109.144ZM162.006 104.952C162.667 104.533 163.149 103.875 163.449 103.096C163.81 102.318 163.931 101.36 163.931 100.282C163.931 99.2042 163.75 98.2462 163.449 97.4679C163.089 96.6895 162.607 96.0309 162.006 95.6117C161.344 95.1926 160.622 94.9531 159.84 94.9531C158.998 94.9531 158.276 95.1926 157.614 95.6117C156.953 96.0309 156.471 96.6895 156.171 97.4679C155.87 98.2462 155.689 99.2042 155.689 100.282C155.689 101.36 155.87 102.318 156.171 103.096C156.471 103.875 156.953 104.533 157.614 104.952C158.276 105.371 158.998 105.611 159.84 105.611C160.682 105.611 161.404 105.371 162.006 104.952Z" fill="#0F1822"/>
<path d="M59.8035 82.1382H53.0661L53.0661 99.4421L63.2323 109.801H78.3313L78.3313 101.179L59.8035 82.1382Z" fill="#FF681F"/>
<path d="M41.3951 87.4668H36.2819L36.2819 99.4418L46.388 109.8H53.0653L53.0653 99.4418L41.3951 87.4668Z" fill="#FF681F"/>
<path d="M29.4842 92.4961H22.3859L22.3859 99.4416L32.492 109.8H36.2818L36.2818 99.4416L29.4842 92.4961Z" fill="#FF681F"/>
</svg>
